<svg width="42" height="42" viewBox="0 0 42 42" fill="none" xmlns="http://www.w3.org/2000/svg">
<rect x="9" y="8" width="24" height="24" fill="#6FDC97"/>
<path d="M28.035 3.5H28.0175C27.5345 3.5 27.1513 3.89203 27.1513 4.37503C27.1513 4.85803 27.552 5.24997 28.035 5.24997C28.518 5.24997 28.91 4.85795 28.91 4.37495C28.91 3.89195 28.518 3.5 28.035 3.5Z" fill="#02894B"/>
<path d="M21 38.4999C21.966 38.4999 22.75 37.716 22.75 36.75C22.75 35.784 21.966 35 21 35C20.034 35 19.25 35.784 19.25 36.75C19.25 37.716 20.034 38.4999 21 38.4999Z" fill="#02894B"/>
<path d="M22.75 3.5H19.2499C18.7669 3.5 18.3749 3.89203 18.3749 4.37503C18.3749 4.85803 18.767 5.24997 19.25 5.24997H22.75C23.233 5.24997 23.625 4.85795 23.625 4.37495C23.625 3.89195 23.233 3.5 22.75 3.5Z" fill="#02894B"/>
<path d="M29.75 0H12.25C9.8385 0 7.875 1.9635 7.875 4.37497V37.6249C7.875 40.0365 9.8385 42 12.25 42H29.7499C32.1615 42 34.125 40.0365 34.125 37.625V4.37497C34.125 1.9635 32.1615 0 29.75 0ZM32.375 37.625C32.375 39.0723 31.1973 40.25 29.75 40.25H12.25C10.8027 40.25 9.62497 39.0723 9.62497 37.625V33.2501H32.3749V37.625H32.375ZM32.375 31.5H9.62497V8.75003H32.3749V31.5H32.375ZM32.375 6.99997H9.62497V4.37497C9.62497 2.9277 10.8027 1.74997 12.25 1.74997H29.7499C31.1972 1.74997 32.3749 2.9277 32.3749 4.37497V6.99997H32.375Z" fill="#02894B"/>
</svg>
