<svg width="42" height="42" viewBox="0 0 42 42" fill="none" xmlns="http://www.w3.org/2000/svg">
<path d="M14 40L18 29C12 24.2 13.8333 19.6667 15.5 18H1V24C2.2 36 10.1667 39.6667 14 40Z" fill="#6FDC97"/>
<path d="M1 18.5H15C19 12.5 25 16 27 18.5C35.5 21.5 41 19 40.5 17.5C35 1.49999 22.5 -1.19209e-07 13.5 2.99998C6.4484 5.3505 2 13.8333 1 18.5Z" fill="#6FDC97"/>
<path d="M28 40L24 29C30 24.2 28.1667 19.6667 26.5 18H41V24C39.8 36 31.8333 39.6667 28 40Z" fill="#6FDC97"/>
<path d="M0 22.2178C0.1995 10.7137 8.25169 2.52372 18.1086 1.19809C29.8672 -0.375596 39.7583 7.62278 41.6587 18.233C43.4634 28.296 37.9326 37.7158 28.8133 41.4485C28.0271 41.7688 27.5966 41.5916 27.2961 40.7923L22.764 29.0205C22.5054 28.3288 22.6813 27.8983 23.3586 27.5925C25.41 26.6619 26.6871 25.104 27.0296 22.8675C27.1572 22.0474 27.1148 21.2098 26.9052 20.4067C26.6956 19.6037 26.3232 18.8523 25.8111 18.1991C25.299 17.546 24.6582 17.0051 23.9283 16.6099C23.1984 16.2148 22.3952 15.9738 21.5683 15.902C20.0367 15.7537 18.5061 16.1939 17.2873 17.1331C16.0684 18.0724 15.2527 19.4403 15.0058 20.9591C14.5609 23.756 15.9416 26.36 18.5456 27.5426C19.3594 27.9114 19.5234 28.2737 19.2084 29.1018L14.6554 40.955C14.4362 41.5365 13.9584 41.7425 13.3429 41.5023C8.53674 39.622 4.59362 36.0341 2.26931 31.4263C0.1575 27.2565 0.137812 23.9962 0 22.2112V22.2178ZM1.77056 22.055C1.806 22.6155 1.82438 23.2638 1.88081 23.928C2.41238 30.018 6.07687 36.0817 12.9741 39.4378C13.2484 39.5598 13.3507 39.506 13.4531 39.2475C14.7118 35.9308 15.9823 32.6167 17.2607 29.3C17.3696 29.027 17.3145 28.8971 17.0612 28.7396C14.3824 27.0504 13.0489 24.6302 13.1985 21.4526C13.2812 19.6269 13.986 18.0204 15.2158 16.6803C17.7516 13.9123 21.7363 13.3098 24.9979 15.1907C26.3154 15.9538 27.3802 17.0866 28.0604 18.4487C28.7407 19.8109 29.0066 21.3426 28.8251 22.8543C28.5167 25.4373 27.1924 27.4205 24.9493 28.7606C24.7236 28.8971 24.6553 29.006 24.759 29.2712C26.0439 32.5944 27.3223 35.9163 28.5862 39.2396C28.6899 39.506 28.7923 39.5598 29.0588 39.4299C32.0736 38.0282 34.5817 36.0187 36.5243 33.3399C39.4695 29.2515 40.6862 24.705 40.1048 19.7017C38.9497 9.74772 29.9946 1.5039 18.4629 2.92665C9.48019 4.02784 1.92019 11.6088 1.76925 22.0537L1.77056 22.055Z" fill="#02894B"/>
</svg>
