<svg width="42" height="42" viewBox="0 0 42 42" fill="none" xmlns="http://www.w3.org/2000/svg">
<g clip-path="url(#clip0)">
<path d="M8.5 34H15.5C16.5 34 17 29 17 27C17 25 19.5 23.5 20.5 22.5C21.3 21.7 22.8333 19.1667 23.5 18V12C23.5 10.4 22.8333 9.66667 22.5 9.5H6.5C2.1 9.5 1 10.1667 1 10.5V18C1 19.5 4 22.5 5.5 23.5C9 29 7.5 28 7.5 31C7.5 33.4 8.16667 34 8.5 34Z" fill="#6FDC97"/>
<path d="M41.9737 30.4142C41.8739 30.0099 41.1057 28.0009 35.8749 28.0009C31.5489 28.0009 29.3019 31.5849 27.3174 34.7454C25.5429 37.5769 23.8647 40.2509 21 40.2509C15.519 40.2509 13.664 36.9575 13.2352 35.0009H14.8749C16.3222 35.0009 17.4999 33.8232 17.4999 32.3759V29.7509C17.4999 27.2852 18.6777 24.9315 20.6499 23.451C23.0614 21.6432 24.4999 18.7644 24.4999 15.7509V11.376C24.4999 9.92871 23.3222 8.75099 21.8749 8.75099H19.2499V0.876002C19.2499 0.393003 18.8579 0.000976562 18.3749 0.000976562C17.8919 0.000976562 17.4999 0.393003 17.4999 0.876002V8.75099H6.99988V0.876002C6.99988 0.393003 6.60785 0.000976562 6.12485 0.000976562C5.64185 0.000976562 5.24999 0.392921 5.24999 0.87592V8.75091H2.62499C1.17772 8.75091 0 9.92863 0 11.3759V15.7509C0 18.7644 1.44022 21.6431 3.84997 23.4509C5.82224 24.9314 6.99996 27.2851 6.99996 29.7509V32.3759C6.99996 33.8231 8.17768 35.0009 9.62495 35.0009H11.4502C11.8965 38.0143 14.6265 42.0008 21 42.0008C24.8325 42.0008 26.8502 38.7861 28.8014 35.6763C30.7124 32.6296 32.5184 29.7508 35.8749 29.7508C39.6286 29.7508 40.2622 30.8411 40.2761 30.8411V30.8393C40.3933 31.3066 40.8694 31.5936 41.3366 31.4746C41.8057 31.3574 42.0909 30.8831 41.9737 30.4142ZM9.62495 33.2509C9.14196 33.2509 8.74993 32.8589 8.74993 32.3759V29.7509C8.74993 26.7374 7.30971 23.8587 4.89996 22.0509C2.92769 20.5704 1.74997 18.2166 1.74997 15.7509V11.3759C1.74997 10.8929 2.142 10.5009 2.62499 10.5009H21.875C22.358 10.5009 22.75 10.8929 22.75 11.3759V15.7509C22.75 18.2166 21.5723 20.5704 19.6 22.0509C17.1885 23.8587 15.75 26.7374 15.75 29.7509V32.3759C15.75 32.8589 15.3579 33.2509 14.8749 33.2509H9.62495Z" fill="#02894B"/>
<circle cx="12" cy="19" r="2" fill="white"/>
<path d="M12.2499 15.7501C10.3197 15.7501 8.74993 17.3198 8.74993 19.2501C8.74993 21.1804 10.3197 22.7501 12.2499 22.7501C14.1802 22.7501 15.75 21.1804 15.75 19.2501C15.75 17.3198 14.1802 15.7501 12.2499 15.7501ZM12.2499 21.0001C11.2857 21.0001 10.5 20.2143 10.5 19.2501C10.5 18.2858 11.2858 17.5001 12.2499 17.5001C13.2142 17.5001 13.9999 18.2859 13.9999 19.2501C14 20.2143 13.2142 21.0001 12.2499 21.0001Z" fill="#02894B"/>
</g>
<defs>
<clipPath id="clip0">
<rect width="42" height="42" fill="white"/>
</clipPath>
</defs>
</svg>
