<svg width="42" height="42" viewBox="0 0 42 42" fill="none" xmlns="http://www.w3.org/2000/svg">
<g clip-path="url(#clip0)">
<path d="M32.5 20L22 9.5C16 15.3333 4.10001 27.2 4.50001 28C7.30001 35.6 13 37.1667 15.5 37L32.5 20Z" fill="#6FDC97"/>
<path d="M40.8304 6.41068L35.596 1.17075C34.8426 0.415544 33.7867 0 32.6263 0C31.0994 0 29.5288 0.694159 28.3174 1.90453L3.35696 26.8678C3.23291 26.9881 3.14695 27.1454 3.10901 27.3157L0.0235117 40.8699C-0.0477523 41.179 0.046613 41.5047 0.271466 41.7287C0.446336 41.9035 0.682389 41.9999 0.925723 41.9999C0.994187 41.9999 1.06363 41.9934 1.13209 41.9768L14.6881 38.8931C14.8565 38.8551 15.0139 38.7682 15.1369 38.6451L40.0984 13.6848C41.3099 12.4761 42.0021 10.9038 42.0003 9.37675C42.0001 8.21623 41.5837 7.16309 40.8304 6.41068ZM9.45543 33.8459L27.1424 16.1583L31.0748 20.0904L14.9198 36.2434C12.9987 36.1365 11.0559 35.2163 9.45543 33.8459ZM5.76034 27.0806L21.9117 10.9282L25.8337 14.8498L8.14747 32.5367C6.78198 30.9378 5.86618 28.9983 5.76034 27.0806ZM9.24794 33.6621C8.92998 33.3768 8.62714 33.0738 8.3418 32.756L9.24794 33.6621ZM23.2206 9.61911L25.8089 7.0305L34.9719 16.1935L32.3833 18.7818L23.2206 9.61911ZM4.44286 29.7941C5.65309 33.2648 8.73369 36.3468 12.2041 37.5591L2.15471 39.8454L4.44286 29.7941ZM38.7898 12.3761L36.2807 14.8849L27.1176 5.72184L29.626 3.21332C30.4792 2.36011 31.6017 1.85006 32.6263 1.85006C33.0983 1.85006 33.7684 1.96025 34.2875 2.4794L39.5219 7.71934C40.041 8.23667 40.1494 8.90576 40.1494 9.37689C40.1511 10.4022 39.6411 11.5239 38.7898 12.3761Z" fill="#02894B"/>
</g>
<defs>
<clipPath id="clip0">
<rect width="42" height="42" fill="white"/>
</clipPath>
</defs>
</svg>
