<svg width="37" height="37" viewBox="0 0 37 37" fill="none" xmlns="http://www.w3.org/2000/svg">
<g clip-path="url(#clip0)">
<path d="M19.2714 36.2291L19.2714 0.770857C19.2714 0.345357 18.9261 -1.50961e-08 18.5006 -3.36953e-08C18.0751 -5.22945e-08 17.7297 0.345357 17.7297 0.770857L17.7297 36.2292C17.7297 36.6547 18.0751 37.0001 18.5006 37.0001C18.9261 37.0001 19.2714 36.6546 19.2714 36.2291Z" fill="white"/>
<path d="M19.0448 36.7734L31.3781 24.44C31.6787 24.1394 31.6787 23.6507 31.3781 23.35C31.0775 23.0494 30.5887 23.0494 30.2881 23.35L17.9548 35.6834C17.8052 35.8345 17.7296 36.0318 17.7296 36.2292C17.7296 36.4265 17.8052 36.6238 17.9548 36.7734C18.2555 37.074 18.7442 37.074 19.0448 36.7734Z" fill="white"/>
<path d="M19.0448 36.7734C19.3454 36.4727 19.3454 35.984 19.0448 35.6834L6.71146 23.3501C6.41083 23.0495 5.9221 23.0495 5.62147 23.3501C5.47196 23.5012 5.39637 23.6985 5.39637 23.8959C5.39637 24.0932 5.47188 24.2905 5.62147 24.4401L17.9548 36.7734C18.2555 37.074 18.7442 37.074 19.0448 36.7734Z" fill="white"/>
</g>
<defs>
<clipPath id="clip0">
<rect x="37" width="37" height="37" transform="rotate(90 37 0)" fill="white"/>
</clipPath>
</defs>
</svg>
