<svg width="250" height="495" viewBox="0 0 250 495" fill="none" xmlns="http://www.w3.org/2000/svg">
<g opacity="0.25">
<path d="M2.5 490C3.88071 490 5 491.119 5 492.5C5 493.881 3.88071 495 2.5 495C1.11929 495 -4.89256e-08 493.881 -1.09278e-07 492.5C-1.69631e-07 491.119 1.11929 490 2.5 490Z" fill="#02894B"/>
<path d="M2.5 455C3.88071 455 5 456.119 5 457.5C5 458.881 3.88071 460 2.5 460C1.11929 460 -1.57882e-06 458.881 -1.63918e-06 457.5C-1.69953e-06 456.119 1.11929 455 2.5 455Z" fill="#02894B"/>
<path d="M2.5 420C3.88071 420 5 421.119 5 422.5C5 423.881 3.88071 425 2.5 425C1.11929 425 -3.10872e-06 423.881 -3.16908e-06 422.5C-3.22943e-06 421.119 1.11928 420 2.5 420Z" fill="#02894B"/>
<path d="M2.5 385C3.88071 385 5 386.119 5 387.5C5 388.881 3.88071 390 2.5 390C1.11928 390 -4.63862e-06 388.881 -4.69897e-06 387.5C-4.75933e-06 386.119 1.11928 385 2.5 385Z" fill="#02894B"/>
<path d="M2.49999 350C3.88071 350 4.99999 351.119 4.99999 352.5C4.99999 353.881 3.88071 355 2.49999 355C1.11928 355 -6.16852e-06 353.881 -6.22887e-06 352.5C-6.28923e-06 351.119 1.11928 350 2.49999 350Z" fill="#02894B"/>
<path d="M2.49999 315C3.8807 315 4.99999 316.119 4.99999 317.5C4.99999 318.881 3.8807 320 2.49999 320C1.11928 320 -7.69842e-06 318.881 -7.75877e-06 317.5C-7.81912e-06 316.119 1.11928 315 2.49999 315Z" fill="#02894B"/>
<path d="M2.49999 280C3.8807 280 4.99999 281.119 4.99999 282.5C4.99999 283.881 3.8807 285 2.49999 285C1.11928 285 -9.22832e-06 283.881 -9.28867e-06 282.5C-9.34902e-06 281.119 1.11928 280 2.49999 280Z" fill="#02894B"/>
<path d="M2.49999 245C3.8807 245 4.99999 246.119 4.99999 247.5C4.99999 248.881 3.8807 250 2.49999 250C1.11928 250 -1.07582e-05 248.881 -1.08186e-05 247.5C-1.08789e-05 246.119 1.11928 245 2.49999 245Z" fill="#02894B"/>
<path d="M2.49999 210C3.8807 210 4.99999 211.119 4.99999 212.5C4.99999 213.881 3.8807 215 2.49999 215C1.11928 215 -1.22881e-05 213.881 -1.23485e-05 212.5C-1.24088e-05 211.119 1.11928 210 2.49999 210Z" fill="#02894B"/>
<path d="M2.49999 175C3.8807 175 4.99999 176.119 4.99999 177.5C4.99999 178.881 3.8807 180 2.49999 180C1.11927 180 -1.3818e-05 178.881 -1.38784e-05 177.5C-1.39387e-05 176.119 1.11927 175 2.49999 175Z" fill="#02894B"/>
<path d="M2.49998 140C3.8807 140 4.99998 141.119 4.99998 142.5C4.99998 143.881 3.8807 145 2.49998 145C1.11927 145 -1.53479e-05 143.881 -1.54083e-05 142.5C-1.54686e-05 141.119 1.11927 140 2.49998 140Z" fill="#02894B"/>
<path d="M2.49998 105C3.88069 105 4.99998 106.119 4.99998 107.5C4.99998 108.881 3.8807 110 2.49998 110C1.11927 110 -1.68778e-05 108.881 -1.69382e-05 107.5C-1.69985e-05 106.119 1.11927 105 2.49998 105Z" fill="#02894B"/>
<path d="M2.49998 70C3.88069 70 4.99998 71.1193 4.99998 72.5C4.99998 73.8807 3.88069 75 2.49998 75C1.11927 75 -1.84077e-05 73.8807 -1.84681e-05 72.5C-1.85284e-05 71.1193 1.11927 70 2.49998 70Z" fill="#02894B"/>
<path d="M2.49998 35C3.88069 35 4.99998 36.1193 4.99998 37.5C4.99998 38.8807 3.88069 40 2.49998 40C1.11927 40 -1.99376e-05 38.8807 -1.9998e-05 37.5C-2.00583e-05 36.1193 1.11927 35 2.49998 35Z" fill="#02894B"/>
<path d="M2.49998 -1.09278e-07C3.88069 -1.69631e-07 4.99998 1.11929 4.99998 2.5C4.99998 3.88071 3.88069 5 2.49998 5C1.11927 5 -2.14675e-05 3.88071 -2.15279e-05 2.5C-2.15882e-05 1.11929 1.11927 -4.89256e-08 2.49998 -1.09278e-07Z" fill="#02894B"/>
<path d="M37.5 490C38.8807 490 40 491.119 40 492.5C40 493.881 38.8807 495 37.5 495C36.1193 495 35 493.881 35 492.5C35 491.119 36.1193 490 37.5 490Z" fill="#02894B"/>
<path d="M37.5 455C38.8807 455 40 456.119 40 457.5C40 458.881 38.8807 460 37.5 460C36.1193 460 35 458.881 35 457.5C35 456.119 36.1193 455 37.5 455Z" fill="#02894B"/>
<path d="M37.5 420C38.8807 420 40 421.119 40 422.5C40 423.881 38.8807 425 37.5 425C36.1193 425 35 423.881 35 422.5C35 421.119 36.1193 420 37.5 420Z" fill="#02894B"/>
<path d="M37.5 385C38.8807 385 40 386.119 40 387.5C40 388.881 38.8807 390 37.5 390C36.1193 390 35 388.881 35 387.5C35 386.119 36.1193 385 37.5 385Z" fill="#02894B"/>
<path d="M37.5 350C38.8807 350 40 351.119 40 352.5C40 353.881 38.8807 355 37.5 355C36.1193 355 35 353.881 35 352.5C35 351.119 36.1193 350 37.5 350Z" fill="#02894B"/>
<path d="M37.5 315C38.8807 315 40 316.119 40 317.5C40 318.881 38.8807 320 37.5 320C36.1193 320 35 318.881 35 317.5C35 316.119 36.1193 315 37.5 315Z" fill="#02894B"/>
<path d="M37.5 280C38.8807 280 40 281.119 40 282.5C40 283.881 38.8807 285 37.5 285C36.1193 285 35 283.881 35 282.5C35 281.119 36.1193 280 37.5 280Z" fill="#02894B"/>
<path d="M37.5 245C38.8807 245 40 246.119 40 247.5C40 248.881 38.8807 250 37.5 250C36.1193 250 35 248.881 35 247.5C35 246.119 36.1193 245 37.5 245Z" fill="#02894B"/>
<path d="M37.5 210C38.8807 210 40 211.119 40 212.5C40 213.881 38.8807 215 37.5 215C36.1193 215 35 213.881 35 212.5C35 211.119 36.1193 210 37.5 210Z" fill="#02894B"/>
<path d="M37.5 175C38.8807 175 40 176.119 40 177.5C40 178.881 38.8807 180 37.5 180C36.1193 180 35 178.881 35 177.5C35 176.119 36.1193 175 37.5 175Z" fill="#02894B"/>
<path d="M37.5 140C38.8807 140 40 141.119 40 142.5C40 143.881 38.8807 145 37.5 145C36.1193 145 35 143.881 35 142.5C35 141.119 36.1193 140 37.5 140Z" fill="#02894B"/>
<path d="M37.5 105C38.8807 105 40 106.119 40 107.5C40 108.881 38.8807 110 37.5 110C36.1193 110 35 108.881 35 107.5C35 106.119 36.1193 105 37.5 105Z" fill="#02894B"/>
<path d="M37.5 70C38.8807 70 40 71.1193 40 72.5C40 73.8807 38.8807 75 37.5 75C36.1193 75 35 73.8807 35 72.5C35 71.1193 36.1193 70 37.5 70Z" fill="#02894B"/>
<path d="M37.5 35C38.8807 35 40 36.1193 40 37.5C40 38.8807 38.8807 40 37.5 40C36.1193 40 35 38.8807 35 37.5C35 36.1193 36.1193 35 37.5 35Z" fill="#02894B"/>
<path d="M37.5 -1.63918e-06C38.8807 -1.69953e-06 40 1.11929 40 2.5C40 3.88071 38.8807 5 37.5 5C36.1193 5 35 3.88071 35 2.5C35 1.11929 36.1193 -1.57882e-06 37.5 -1.63918e-06Z" fill="#02894B"/>
<path d="M72.5 490C73.8807 490 75 491.119 75 492.5C75 493.881 73.8807 495 72.5 495C71.1193 495 70 493.881 70 492.5C70 491.119 71.1193 490 72.5 490Z" fill="#02894B"/>
<path d="M72.5 455C73.8807 455 75 456.119 75 457.5C75 458.881 73.8807 460 72.5 460C71.1193 460 70 458.881 70 457.5C70 456.119 71.1193 455 72.5 455Z" fill="#02894B"/>
<path d="M72.5 420C73.8807 420 75 421.119 75 422.5C75 423.881 73.8807 425 72.5 425C71.1193 425 70 423.881 70 422.5C70 421.119 71.1193 420 72.5 420Z" fill="#02894B"/>
<path d="M72.5 385C73.8807 385 75 386.119 75 387.5C75 388.881 73.8807 390 72.5 390C71.1193 390 70 388.881 70 387.5C70 386.119 71.1193 385 72.5 385Z" fill="#02894B"/>
<path d="M72.5 350C73.8807 350 75 351.119 75 352.5C75 353.881 73.8807 355 72.5 355C71.1193 355 70 353.881 70 352.5C70 351.119 71.1193 350 72.5 350Z" fill="#02894B"/>
<path d="M72.5 315C73.8807 315 75 316.119 75 317.5C75 318.881 73.8807 320 72.5 320C71.1193 320 70 318.881 70 317.5C70 316.119 71.1193 315 72.5 315Z" fill="#02894B"/>
<path d="M72.5 280C73.8807 280 75 281.119 75 282.5C75 283.881 73.8807 285 72.5 285C71.1193 285 70 283.881 70 282.5C70 281.119 71.1193 280 72.5 280Z" fill="#02894B"/>
<path d="M72.5 245C73.8807 245 75 246.119 75 247.5C75 248.881 73.8807 250 72.5 250C71.1193 250 70 248.881 70 247.5C70 246.119 71.1193 245 72.5 245Z" fill="#02894B"/>
<path d="M72.5 210C73.8807 210 75 211.119 75 212.5C75 213.881 73.8807 215 72.5 215C71.1193 215 70 213.881 70 212.5C70 211.119 71.1193 210 72.5 210Z" fill="#02894B"/>
<path d="M72.5 175C73.8807 175 75 176.119 75 177.5C75 178.881 73.8807 180 72.5 180C71.1193 180 70 178.881 70 177.5C70 176.119 71.1193 175 72.5 175Z" fill="#02894B"/>
<path d="M72.5 140C73.8807 140 75 141.119 75 142.5C75 143.881 73.8807 145 72.5 145C71.1193 145 70 143.881 70 142.5C70 141.119 71.1193 140 72.5 140Z" fill="#02894B"/>
<path d="M72.5 105C73.8807 105 75 106.119 75 107.5C75 108.881 73.8807 110 72.5 110C71.1193 110 70 108.881 70 107.5C70 106.119 71.1193 105 72.5 105Z" fill="#02894B"/>
<path d="M72.5 70C73.8807 70 75 71.1193 75 72.5C75 73.8807 73.8807 75 72.5 75C71.1193 75 70 73.8807 70 72.5C70 71.1193 71.1193 70 72.5 70Z" fill="#02894B"/>
<path d="M72.5 35C73.8807 35 75 36.1193 75 37.5C75 38.8807 73.8807 40 72.5 40C71.1193 40 70 38.8807 70 37.5C70 36.1193 71.1193 35 72.5 35Z" fill="#02894B"/>
<path d="M72.5 -3.16908e-06C73.8807 -3.22943e-06 75 1.11929 75 2.5C75 3.8807 73.8807 5 72.5 5C71.1193 5 70 3.8807 70 2.5C70 1.11929 71.1193 -3.10872e-06 72.5 -3.16908e-06Z" fill="#02894B"/>
<path d="M107.5 490C108.881 490 110 491.119 110 492.5C110 493.881 108.881 495 107.5 495C106.119 495 105 493.881 105 492.5C105 491.119 106.119 490 107.5 490Z" fill="#02894B"/>
<path d="M107.5 455C108.881 455 110 456.119 110 457.5C110 458.881 108.881 460 107.5 460C106.119 460 105 458.881 105 457.5C105 456.119 106.119 455 107.5 455Z" fill="#02894B"/>
<path d="M107.5 420C108.881 420 110 421.119 110 422.5C110 423.881 108.881 425 107.5 425C106.119 425 105 423.881 105 422.5C105 421.119 106.119 420 107.5 420Z" fill="#02894B"/>
<path d="M107.5 385C108.881 385 110 386.119 110 387.5C110 388.881 108.881 390 107.5 390C106.119 390 105 388.881 105 387.5C105 386.119 106.119 385 107.5 385Z" fill="#02894B"/>
<path d="M107.5 350C108.881 350 110 351.119 110 352.5C110 353.881 108.881 355 107.5 355C106.119 355 105 353.881 105 352.5C105 351.119 106.119 350 107.5 350Z" fill="#02894B"/>
<path d="M107.5 315C108.881 315 110 316.119 110 317.5C110 318.881 108.881 320 107.5 320C106.119 320 105 318.881 105 317.5C105 316.119 106.119 315 107.5 315Z" fill="#02894B"/>
<path d="M107.5 280C108.881 280 110 281.119 110 282.5C110 283.881 108.881 285 107.5 285C106.119 285 105 283.881 105 282.5C105 281.119 106.119 280 107.5 280Z" fill="#02894B"/>
<path d="M107.5 245C108.881 245 110 246.119 110 247.5C110 248.881 108.881 250 107.5 250C106.119 250 105 248.881 105 247.5C105 246.119 106.119 245 107.5 245Z" fill="#02894B"/>
<path d="M107.5 210C108.881 210 110 211.119 110 212.5C110 213.881 108.881 215 107.5 215C106.119 215 105 213.881 105 212.5C105 211.119 106.119 210 107.5 210Z" fill="#02894B"/>
<path d="M107.5 175C108.881 175 110 176.119 110 177.5C110 178.881 108.881 180 107.5 180C106.119 180 105 178.881 105 177.5C105 176.119 106.119 175 107.5 175Z" fill="#02894B"/>
<path d="M107.5 140C108.881 140 110 141.119 110 142.5C110 143.881 108.881 145 107.5 145C106.119 145 105 143.881 105 142.5C105 141.119 106.119 140 107.5 140Z" fill="#02894B"/>
<path d="M107.5 105C108.881 105 110 106.119 110 107.5C110 108.881 108.881 110 107.5 110C106.119 110 105 108.881 105 107.5C105 106.119 106.119 105 107.5 105Z" fill="#02894B"/>
<path d="M107.5 70C108.881 70 110 71.1193 110 72.5C110 73.8807 108.881 75 107.5 75C106.119 75 105 73.8807 105 72.5C105 71.1193 106.119 70 107.5 70Z" fill="#02894B"/>
<path d="M107.5 35C108.881 35 110 36.1193 110 37.5C110 38.8807 108.881 40 107.5 40C106.119 40 105 38.8807 105 37.5C105 36.1193 106.119 35 107.5 35Z" fill="#02894B"/>
<path d="M107.5 -4.69897e-06C108.881 -4.75933e-06 110 1.11929 110 2.5C110 3.8807 108.881 5 107.5 5C106.119 5 105 3.8807 105 2.5C105 1.11929 106.119 -4.63862e-06 107.5 -4.69897e-06Z" fill="#02894B"/>
<path d="M142.5 490C143.881 490 145 491.119 145 492.5C145 493.881 143.881 495 142.5 495C141.119 495 140 493.881 140 492.5C140 491.119 141.119 490 142.5 490Z" fill="#02894B"/>
<path d="M142.5 455C143.881 455 145 456.119 145 457.5C145 458.881 143.881 460 142.5 460C141.119 460 140 458.881 140 457.5C140 456.119 141.119 455 142.5 455Z" fill="#02894B"/>
<path d="M142.5 420C143.881 420 145 421.119 145 422.5C145 423.881 143.881 425 142.5 425C141.119 425 140 423.881 140 422.5C140 421.119 141.119 420 142.5 420Z" fill="#02894B"/>
<path d="M142.5 385C143.881 385 145 386.119 145 387.5C145 388.881 143.881 390 142.5 390C141.119 390 140 388.881 140 387.5C140 386.119 141.119 385 142.5 385Z" fill="#02894B"/>
<path d="M142.5 350C143.881 350 145 351.119 145 352.5C145 353.881 143.881 355 142.5 355C141.119 355 140 353.881 140 352.5C140 351.119 141.119 350 142.5 350Z" fill="#02894B"/>
<path d="M142.5 315C143.881 315 145 316.119 145 317.5C145 318.881 143.881 320 142.5 320C141.119 320 140 318.881 140 317.5C140 316.119 141.119 315 142.5 315Z" fill="#02894B"/>
<path d="M142.5 280C143.881 280 145 281.119 145 282.5C145 283.881 143.881 285 142.5 285C141.119 285 140 283.881 140 282.5C140 281.119 141.119 280 142.5 280Z" fill="#02894B"/>
<path d="M142.5 245C143.881 245 145 246.119 145 247.5C145 248.881 143.881 250 142.5 250C141.119 250 140 248.881 140 247.5C140 246.119 141.119 245 142.5 245Z" fill="#02894B"/>
<path d="M142.5 210C143.881 210 145 211.119 145 212.5C145 213.881 143.881 215 142.5 215C141.119 215 140 213.881 140 212.5C140 211.119 141.119 210 142.5 210Z" fill="#02894B"/>
<path d="M142.5 175C143.881 175 145 176.119 145 177.5C145 178.881 143.881 180 142.5 180C141.119 180 140 178.881 140 177.5C140 176.119 141.119 175 142.5 175Z" fill="#02894B"/>
<path d="M142.5 140C143.881 140 145 141.119 145 142.5C145 143.881 143.881 145 142.5 145C141.119 145 140 143.881 140 142.5C140 141.119 141.119 140 142.5 140Z" fill="#02894B"/>
<path d="M142.5 105C143.881 105 145 106.119 145 107.5C145 108.881 143.881 110 142.5 110C141.119 110 140 108.881 140 107.5C140 106.119 141.119 105 142.5 105Z" fill="#02894B"/>
<path d="M142.5 70C143.881 70 145 71.1193 145 72.5C145 73.8807 143.881 75 142.5 75C141.119 75 140 73.8807 140 72.5C140 71.1193 141.119 70 142.5 70Z" fill="#02894B"/>
<path d="M142.5 35C143.881 35 145 36.1193 145 37.5C145 38.8807 143.881 40 142.5 40C141.119 40 140 38.8807 140 37.5C140 36.1193 141.119 35 142.5 35Z" fill="#02894B"/>
<path d="M142.5 -6.22887e-06C143.881 -6.28923e-06 145 1.11929 145 2.49999C145 3.8807 143.881 4.99999 142.5 4.99999C141.119 4.99999 140 3.8807 140 2.49999C140 1.11929 141.119 -6.16852e-06 142.5 -6.22887e-06Z" fill="#02894B"/>
<path d="M177.5 490C178.881 490 180 491.119 180 492.5C180 493.881 178.881 495 177.5 495C176.119 495 175 493.881 175 492.5C175 491.119 176.119 490 177.5 490Z" fill="#02894B"/>
<path d="M177.5 455C178.881 455 180 456.119 180 457.5C180 458.881 178.881 460 177.5 460C176.119 460 175 458.881 175 457.5C175 456.119 176.119 455 177.5 455Z" fill="#02894B"/>
<path d="M177.5 420C178.881 420 180 421.119 180 422.5C180 423.881 178.881 425 177.5 425C176.119 425 175 423.881 175 422.5C175 421.119 176.119 420 177.5 420Z" fill="#02894B"/>
<path d="M177.5 385C178.881 385 180 386.119 180 387.5C180 388.881 178.881 390 177.5 390C176.119 390 175 388.881 175 387.5C175 386.119 176.119 385 177.5 385Z" fill="#02894B"/>
<path d="M177.5 350C178.881 350 180 351.119 180 352.5C180 353.881 178.881 355 177.5 355C176.119 355 175 353.881 175 352.5C175 351.119 176.119 350 177.5 350Z" fill="#02894B"/>
<path d="M177.5 315C178.881 315 180 316.119 180 317.5C180 318.881 178.881 320 177.5 320C176.119 320 175 318.881 175 317.5C175 316.119 176.119 315 177.5 315Z" fill="#02894B"/>
<path d="M177.5 280C178.881 280 180 281.119 180 282.5C180 283.881 178.881 285 177.5 285C176.119 285 175 283.881 175 282.5C175 281.119 176.119 280 177.5 280Z" fill="#02894B"/>
<path d="M177.5 245C178.881 245 180 246.119 180 247.5C180 248.881 178.881 250 177.5 250C176.119 250 175 248.881 175 247.5C175 246.119 176.119 245 177.5 245Z" fill="#02894B"/>
<path d="M177.5 210C178.881 210 180 211.119 180 212.5C180 213.881 178.881 215 177.5 215C176.119 215 175 213.881 175 212.5C175 211.119 176.119 210 177.5 210Z" fill="#02894B"/>
<path d="M177.5 175C178.881 175 180 176.119 180 177.5C180 178.881 178.881 180 177.5 180C176.119 180 175 178.881 175 177.5C175 176.119 176.119 175 177.5 175Z" fill="#02894B"/>
<path d="M177.5 140C178.881 140 180 141.119 180 142.5C180 143.881 178.881 145 177.5 145C176.119 145 175 143.881 175 142.5C175 141.119 176.119 140 177.5 140Z" fill="#02894B"/>
<path d="M177.5 105C178.881 105 180 106.119 180 107.5C180 108.881 178.881 110 177.5 110C176.119 110 175 108.881 175 107.5C175 106.119 176.119 105 177.5 105Z" fill="#02894B"/>
<path d="M177.5 70C178.881 70 180 71.1193 180 72.5C180 73.8807 178.881 75 177.5 75C176.119 75 175 73.8807 175 72.5C175 71.1193 176.119 70 177.5 70Z" fill="#02894B"/>
<path d="M177.5 35C178.881 35 180 36.1193 180 37.5C180 38.8807 178.881 40 177.5 40C176.119 40 175 38.8807 175 37.5C175 36.1193 176.119 35 177.5 35Z" fill="#02894B"/>
<path d="M177.5 -7.75877e-06C178.881 -7.81912e-06 180 1.11929 180 2.49999C180 3.8807 178.881 4.99999 177.5 4.99999C176.119 4.99999 175 3.8807 175 2.49999C175 1.11929 176.119 -7.69842e-06 177.5 -7.75877e-06Z" fill="#02894B"/>
<path d="M212.5 490C213.881 490 215 491.119 215 492.5C215 493.881 213.881 495 212.5 495C211.119 495 210 493.881 210 492.5C210 491.119 211.119 490 212.5 490Z" fill="#02894B"/>
<path d="M212.5 455C213.881 455 215 456.119 215 457.5C215 458.881 213.881 460 212.5 460C211.119 460 210 458.881 210 457.5C210 456.119 211.119 455 212.5 455Z" fill="#02894B"/>
<path d="M212.5 420C213.881 420 215 421.119 215 422.5C215 423.881 213.881 425 212.5 425C211.119 425 210 423.881 210 422.5C210 421.119 211.119 420 212.5 420Z" fill="#02894B"/>
<path d="M212.5 385C213.881 385 215 386.119 215 387.5C215 388.881 213.881 390 212.5 390C211.119 390 210 388.881 210 387.5C210 386.119 211.119 385 212.5 385Z" fill="#02894B"/>
<path d="M212.5 350C213.881 350 215 351.119 215 352.5C215 353.881 213.881 355 212.5 355C211.119 355 210 353.881 210 352.5C210 351.119 211.119 350 212.5 350Z" fill="#02894B"/>
<path d="M212.5 315C213.881 315 215 316.119 215 317.5C215 318.881 213.881 320 212.5 320C211.119 320 210 318.881 210 317.5C210 316.119 211.119 315 212.5 315Z" fill="#02894B"/>
<path d="M212.5 280C213.881 280 215 281.119 215 282.5C215 283.881 213.881 285 212.5 285C211.119 285 210 283.881 210 282.5C210 281.119 211.119 280 212.5 280Z" fill="#02894B"/>
<path d="M212.5 245C213.881 245 215 246.119 215 247.5C215 248.881 213.881 250 212.5 250C211.119 250 210 248.881 210 247.5C210 246.119 211.119 245 212.5 245Z" fill="#02894B"/>
<path d="M212.5 210C213.881 210 215 211.119 215 212.5C215 213.881 213.881 215 212.5 215C211.119 215 210 213.881 210 212.5C210 211.119 211.119 210 212.5 210Z" fill="#02894B"/>
<path d="M212.5 175C213.881 175 215 176.119 215 177.5C215 178.881 213.881 180 212.5 180C211.119 180 210 178.881 210 177.5C210 176.119 211.119 175 212.5 175Z" fill="#02894B"/>
<path d="M212.5 140C213.881 140 215 141.119 215 142.5C215 143.881 213.881 145 212.5 145C211.119 145 210 143.881 210 142.5C210 141.119 211.119 140 212.5 140Z" fill="#02894B"/>
<path d="M212.5 105C213.881 105 215 106.119 215 107.5C215 108.881 213.881 110 212.5 110C211.119 110 210 108.881 210 107.5C210 106.119 211.119 105 212.5 105Z" fill="#02894B"/>
<path d="M212.5 70C213.881 70 215 71.1193 215 72.5C215 73.8807 213.881 75 212.5 75C211.119 75 210 73.8807 210 72.5C210 71.1193 211.119 70 212.5 70Z" fill="#02894B"/>
<path d="M212.5 35C213.881 35 215 36.1193 215 37.5C215 38.8807 213.881 40 212.5 40C211.119 40 210 38.8807 210 37.5C210 36.1193 211.119 35 212.5 35Z" fill="#02894B"/>
<path d="M212.5 -9.28867e-06C213.881 -9.34902e-06 215 1.11928 215 2.49999C215 3.8807 213.881 4.99999 212.5 4.99999C211.119 4.99999 210 3.8807 210 2.49999C210 1.11928 211.119 -9.22832e-06 212.5 -9.28867e-06Z" fill="#02894B"/>
<path d="M247.5 490C248.881 490 250 491.119 250 492.5C250 493.881 248.881 495 247.5 495C246.119 495 245 493.881 245 492.5C245 491.119 246.119 490 247.5 490Z" fill="#02894B"/>
<path d="M247.5 455C248.881 455 250 456.119 250 457.5C250 458.881 248.881 460 247.5 460C246.119 460 245 458.881 245 457.5C245 456.119 246.119 455 247.5 455Z" fill="#02894B"/>
<path d="M247.5 420C248.881 420 250 421.119 250 422.5C250 423.881 248.881 425 247.5 425C246.119 425 245 423.881 245 422.5C245 421.119 246.119 420 247.5 420Z" fill="#02894B"/>
<path d="M247.5 385C248.881 385 250 386.119 250 387.5C250 388.881 248.881 390 247.5 390C246.119 390 245 388.881 245 387.5C245 386.119 246.119 385 247.5 385Z" fill="#02894B"/>
<path d="M247.5 350C248.881 350 250 351.119 250 352.5C250 353.881 248.881 355 247.5 355C246.119 355 245 353.881 245 352.5C245 351.119 246.119 350 247.5 350Z" fill="#02894B"/>
<path d="M247.5 315C248.881 315 250 316.119 250 317.5C250 318.881 248.881 320 247.5 320C246.119 320 245 318.881 245 317.5C245 316.119 246.119 315 247.5 315Z" fill="#02894B"/>
<path d="M247.5 280C248.881 280 250 281.119 250 282.5C250 283.881 248.881 285 247.5 285C246.119 285 245 283.881 245 282.5C245 281.119 246.119 280 247.5 280Z" fill="#02894B"/>
<path d="M247.5 245C248.881 245 250 246.119 250 247.5C250 248.881 248.881 250 247.5 250C246.119 250 245 248.881 245 247.5C245 246.119 246.119 245 247.5 245Z" fill="#02894B"/>
<path d="M247.5 210C248.881 210 250 211.119 250 212.5C250 213.881 248.881 215 247.5 215C246.119 215 245 213.881 245 212.5C245 211.119 246.119 210 247.5 210Z" fill="#02894B"/>
<path d="M247.5 175C248.881 175 250 176.119 250 177.5C250 178.881 248.881 180 247.5 180C246.119 180 245 178.881 245 177.5C245 176.119 246.119 175 247.5 175Z" fill="#02894B"/>
<path d="M247.5 140C248.881 140 250 141.119 250 142.5C250 143.881 248.881 145 247.5 145C246.119 145 245 143.881 245 142.5C245 141.119 246.119 140 247.5 140Z" fill="#02894B"/>
<path d="M247.5 105C248.881 105 250 106.119 250 107.5C250 108.881 248.881 110 247.5 110C246.119 110 245 108.881 245 107.5C245 106.119 246.119 105 247.5 105Z" fill="#02894B"/>
<path d="M247.5 70C248.881 70 250 71.1193 250 72.5C250 73.8807 248.881 75 247.5 75C246.119 75 245 73.8807 245 72.5C245 71.1193 246.119 70 247.5 70Z" fill="#02894B"/>
<path d="M247.5 35C248.881 35 250 36.1193 250 37.5C250 38.8807 248.881 40 247.5 40C246.119 40 245 38.8807 245 37.5C245 36.1193 246.119 35 247.5 35Z" fill="#02894B"/>
<path d="M247.5 -1.08186e-05C248.881 -1.08789e-05 250 1.11928 250 2.49999C250 3.8807 248.881 4.99999 247.5 4.99999C246.119 4.99999 245 3.8807 245 2.49999C245 1.11928 246.119 -1.07582e-05 247.5 -1.08186e-05Z" fill="#02894B"/>
</g>
</svg>
