<svg width="34" height="33" viewBox="0 0 34 33" fill="none" xmlns="http://www.w3.org/2000/svg">
<path fill-rule="evenodd" clip-rule="evenodd" d="M16.5161 0.0166016C7.39452 0.0166016 0 7.29941 0 16.2832C0 25.267 7.39452 32.5498 16.5161 32.5498C25.6377 32.5498 33.0322 25.267 33.0322 16.2832C33.0322 7.29941 25.6377 0.0166016 16.5161 0.0166016ZM12.8848 7.66007C13.8244 7.61795 14.1246 7.60765 16.5169 7.60765H16.5142C18.9072 7.60765 19.2063 7.61795 20.1459 7.66007C21.0837 7.70236 21.7241 7.84858 22.2857 8.06312C22.8656 8.28453 23.3556 8.58095 23.8456 9.06353C24.3356 9.54575 24.6365 10.0298 24.8622 10.6004C25.0788 11.152 25.2274 11.7824 25.2715 12.706C25.3137 13.6314 25.3247 13.9271 25.3247 16.2833C25.3247 18.6394 25.3137 18.9344 25.2715 19.8598C25.2274 20.783 25.0788 21.4136 24.8622 21.9654C24.6365 22.5358 24.3356 23.0199 23.8456 23.5021C23.3561 23.9847 22.8654 24.2818 22.2863 24.5034C21.7258 24.7179 21.085 24.8642 20.1472 24.9065C19.2076 24.9486 18.9083 24.9589 16.5158 24.9589C14.1237 24.9589 13.8237 24.9486 12.8841 24.9065C11.9465 24.8642 11.3062 24.7179 10.7458 24.5034C10.1668 24.2818 9.67534 23.9847 9.1859 23.5021C8.69611 23.0199 8.39514 22.5358 8.16997 21.9652C7.95232 21.4136 7.80386 20.7832 7.76073 19.8596C7.71816 18.9342 7.70751 18.6394 7.70751 16.2833C7.70751 13.9271 7.71852 13.6312 7.76055 12.7058C7.80276 11.7826 7.9514 11.152 8.16979 10.6002C8.39551 10.0298 8.69647 9.54575 9.18645 9.06353C9.67607 8.58113 10.1675 8.28471 10.7469 8.06312C11.307 7.84858 11.9471 7.70236 12.8848 7.66007Z" fill="#02894B"/>
<path fill-rule="evenodd" clip-rule="evenodd" d="M15.7267 9.17111C15.8802 9.17088 16.0452 9.17095 16.2234 9.17103L16.5169 9.17111C18.8689 9.17111 19.1476 9.17943 20.0764 9.221C20.9352 9.25968 21.4014 9.40102 21.7119 9.51977C22.1229 9.67701 22.416 9.86498 22.7241 10.1686C23.0324 10.4723 23.2233 10.7615 23.3833 11.1663C23.5039 11.4718 23.6476 11.9309 23.6867 12.7767C23.7289 13.6913 23.738 13.966 23.738 16.2813C23.738 18.5966 23.7289 18.8714 23.6867 19.7859C23.6474 20.6318 23.5039 21.0909 23.3833 21.3963C23.2237 21.8012 23.0324 22.0895 22.7241 22.3929C22.4158 22.6966 22.1231 22.8845 21.7119 23.0418C21.4017 23.1611 20.9352 23.3021 20.0764 23.3407C19.1478 23.3823 18.8689 23.3913 16.5169 23.3913C14.1648 23.3913 13.8861 23.3823 12.9575 23.3407C12.0987 23.3017 11.6325 23.1604 11.3218 23.0416C10.9108 22.8844 10.6171 22.6964 10.3088 22.3927C10.0005 22.0891 9.80968 21.8006 9.64965 21.3956C9.52908 21.0901 9.38539 20.6311 9.3463 19.7852C9.3041 18.8706 9.29565 18.5959 9.29565 16.2792C9.29565 13.9624 9.3041 13.6891 9.3463 12.7746C9.38558 11.9287 9.52908 11.4696 9.64965 11.1638C9.80931 10.7589 10.0005 10.4697 10.3088 10.1661C10.6171 9.86245 10.9108 9.67448 11.3218 9.51687C11.6323 9.39758 12.0987 9.25661 12.9575 9.21775C13.7701 9.1816 14.085 9.17075 15.7267 9.16895V9.17111ZM21.2189 10.6108C20.6354 10.6108 20.1619 11.0765 20.1619 11.6513C20.1619 12.226 20.6354 12.6922 21.2189 12.6922C21.8025 12.6922 22.276 12.226 22.276 11.6513C22.276 11.0767 21.8025 10.6105 21.2189 10.6105V10.6108ZM11.9933 16.2829C11.9933 13.8225 14.0187 11.8277 16.5168 11.8276C19.0149 11.8276 21.0398 13.8225 21.0398 16.2829C21.0398 18.7434 19.0151 20.7373 16.5169 20.7373C14.0188 20.7373 11.9933 18.7434 11.9933 16.2829Z" fill="#02894B"/>
<path d="M16.5169 13.3916C18.1385 13.3916 19.4532 14.6863 19.4532 16.2835C19.4532 17.8805 18.1385 19.1753 16.5169 19.1753C14.8952 19.1753 13.5807 17.8805 13.5807 16.2835C13.5807 14.6863 14.8952 13.3916 16.5169 13.3916Z" fill="#02894B"/>
</svg>
