<svg width="34" height="33" viewBox="0 0 34 33" fill="none" xmlns="http://www.w3.org/2000/svg">
<path fill-rule="evenodd" clip-rule="evenodd" d="M16.5161 0.0166016C7.39452 0.0166016 0 7.29941 0 16.2832C0 25.267 7.39452 32.5498 16.5161 32.5498C25.6377 32.5498 33.0322 25.267 33.0322 16.2832C33.0322 7.29941 25.6377 0.0166016 16.5161 0.0166016ZM7.92885 13.4892H11.6718V24.5652H7.92885V13.4892ZM11.9183 10.0626C11.894 8.97686 11.1055 8.14988 9.82504 8.14988C8.54461 8.14988 7.70751 8.97686 7.70751 10.0626C7.70751 11.1259 8.51987 11.9767 9.77645 11.9767H9.80037C11.1055 11.9767 11.9183 11.1259 11.9183 10.0626ZM20.8606 13.2292C23.3236 13.2292 25.1701 14.8126 25.1701 18.2147L25.17 24.5653H21.4272V18.6396C21.4272 17.1512 20.8856 16.1356 19.5306 16.1356C18.4966 16.1356 17.8807 16.8203 17.6102 17.4816C17.5112 17.7186 17.4869 18.0488 17.4869 18.3799V24.5656H13.7435C13.7435 24.5656 13.7929 14.5289 13.7435 13.4896H17.4869V15.0584C17.9837 14.3043 18.8734 13.2292 20.8606 13.2292Z" fill="#02894B"/>
</svg>
