<svg width="196" height="66" viewBox="0 0 196 66" fill="none" xmlns="http://www.w3.org/2000/svg">
<path d="M7.90791 37V8.98789H1.77043V37H7.90791ZM31.5951 27.4397C31.5951 24.0562 30.6509 21.3022 28.7624 19.2564C26.7953 17.2499 24.2773 16.227 21.1299 16.227C17.9431 16.227 15.4252 17.2105 13.5367 19.1383C11.6089 21.0661 10.6647 23.6234 10.6647 26.8495C10.6647 30.0757 11.6089 32.6329 13.5761 34.5607C15.5039 36.5279 18.0611 37.4721 21.2086 37.4721C23.6872 37.4721 25.8117 36.882 27.6215 35.6623C29.3919 34.4427 30.5722 32.7903 31.123 30.6658H25.3002C24.5527 32.2002 23.1757 32.9477 21.2086 32.9477C19.9496 32.9477 18.8873 32.5936 18.1005 31.8461C17.2743 31.1379 16.7628 30.0757 16.5661 28.6593H31.5951V27.4397ZM21.0512 20.7514C22.2708 20.7514 23.2937 21.1055 24.0806 21.8137C24.8675 22.5218 25.3396 23.5054 25.5756 24.7644H16.6055C17.0382 22.0891 18.5333 20.7514 21.0512 20.7514ZM53.8278 37C53.277 36.2131 53.0016 34.9935 53.0016 33.2624V22.4825C53.0016 18.3121 49.9722 16.227 43.9527 16.227C37.8152 16.227 34.5891 18.5875 34.235 23.2693H40.3332C40.4119 22.2464 40.7266 21.5776 41.2381 21.1842C41.7495 20.7907 42.6544 20.594 43.9134 20.594C45.9592 20.594 47.0215 21.3022 47.0215 22.6399C47.0215 23.8201 46.1166 24.489 44.3855 24.6463L41.1987 24.9217C35.8874 25.3939 33.2515 27.479 33.2515 31.2559C33.2515 33.2231 33.9203 34.7181 35.258 35.8197C36.5956 36.9213 38.4054 37.4721 40.6479 37.4721C43.5986 37.4721 45.7625 36.5672 47.1395 34.7181C47.1395 35.6623 47.3362 36.4099 47.651 37H53.8278ZM42.497 33.3411C41.5528 33.3411 40.8053 33.1444 40.2938 32.7116C39.743 32.3182 39.507 31.7281 39.507 31.0199C39.507 29.6035 40.4906 28.8167 42.4577 28.5806L44.9756 28.3052C45.9592 28.1872 46.6281 27.9118 47.0215 27.5184V29.0134C47.0215 30.4691 46.5887 31.5707 45.8019 32.2789C44.9756 32.987 43.874 33.3411 42.497 33.3411ZM68.0146 16.3843C65.1032 16.3843 63.1754 17.7613 62.2312 20.476V16.6991H56.2511V37H62.3886V27.5577C62.3886 23.8988 64.159 22.0497 67.7785 22.0497H69.3522V16.463C68.5654 16.4237 68.0933 16.3843 68.0146 16.3843ZM84.2036 16.227C81.5282 16.227 79.4037 17.3679 77.83 19.5711V16.6991H71.8499V37H77.9874V25.6693C77.9874 24.3316 78.3415 23.3087 79.089 22.5612C79.7972 21.853 80.7414 21.4596 81.843 21.4596C84.0068 21.4596 85.1084 22.6399 85.1084 24.9217V37H91.2459V23.7021C91.2459 21.3415 90.5771 19.4924 89.3181 18.1941C88.0592 16.8958 86.3281 16.227 84.2036 16.227Z" fill="#303030"/>
<path d="M130.253 19.7678C129.702 21.735 129.151 23.6234 128.64 25.4725C128.089 27.3217 127.695 28.7773 127.42 29.8003C127.105 30.8232 126.948 31.492 126.869 31.7674C126.791 31.492 126.594 30.8232 126.318 29.8003C126.004 28.7773 125.61 27.3217 125.099 25.4725C124.548 23.6234 124.037 21.735 123.486 19.7678L122.423 16.6991H115.814L123.053 37H130.371L137.61 16.6991H131.315L130.253 19.7678ZM157.999 37C157.448 36.2131 157.173 34.9935 157.173 33.2624V22.4825C157.173 18.3121 154.144 16.227 148.124 16.227C141.987 16.227 138.761 18.5875 138.407 23.2693H144.505C144.583 22.2464 144.898 21.5776 145.41 21.1842C145.921 20.7907 146.826 20.594 148.085 20.594C150.131 20.594 151.193 21.3022 151.193 22.6399C151.193 23.8201 150.288 24.489 148.557 24.6463L145.37 24.9217C140.059 25.3939 137.423 27.479 137.423 31.2559C137.423 33.2231 138.092 34.7181 139.429 35.8197C140.767 36.9213 142.577 37.4721 144.819 37.4721C147.77 37.4721 149.934 36.5672 151.311 34.7181C151.311 35.6623 151.508 36.4099 151.822 37H157.999ZM146.669 33.3411C145.724 33.3411 144.977 33.1444 144.465 32.7116C143.915 32.3182 143.678 31.7281 143.678 31.0199C143.678 29.6035 144.662 28.8167 146.629 28.5806L149.147 28.3052C150.131 28.1872 150.8 27.9118 151.193 27.5184V29.0134C151.193 30.4691 150.76 31.5707 149.973 32.2789C149.147 32.987 148.046 33.3411 146.669 33.3411ZM171.647 16.6991H167.752V10.6796H161.615V16.6991H158.585V21.1842H161.615V31.3346C161.615 33.4198 162.166 34.9148 163.307 35.8197C164.408 36.7246 166.257 37.1574 168.815 37.1574C169.956 37.1574 170.9 37.118 171.647 37V32.4362H170.074C169.208 32.4362 168.579 32.3182 168.264 32.0821C167.91 31.8461 167.752 31.374 167.752 30.6658V21.1842H171.647V16.6991ZM193.974 27.4397C193.974 24.0562 193.03 21.3022 191.141 19.2564C189.174 17.2499 186.656 16.227 183.509 16.227C180.322 16.227 177.804 17.2105 175.916 19.1383C173.988 21.0661 173.044 23.6234 173.044 26.8495C173.044 30.0757 173.988 32.6329 175.955 34.5607C177.883 36.5279 180.44 37.4721 183.587 37.4721C186.066 37.4721 188.191 36.882 190 35.6623C191.771 34.4427 192.951 32.7903 193.502 30.6658H187.679C186.932 32.2002 185.555 32.9477 183.587 32.9477C182.329 32.9477 181.266 32.5936 180.479 31.8461C179.653 31.1379 179.142 30.0757 178.945 28.6593H193.974V27.4397ZM183.43 20.7514C184.65 20.7514 185.673 21.1055 186.46 21.8137C187.246 22.5218 187.718 23.5054 187.955 24.7644H178.984C179.417 22.0891 180.912 20.7514 183.43 20.7514Z" fill="#303030"/>
<mask id="mask0" mask-type="alpha" maskUnits="userSpaceOnUse" x="81" y="2" width="48" height="49">
<path d="M110.091 43.4034V44.6998C110.091 45.7315 109.328 46.5897 108.336 46.7358L108.014 47.9135C107.84 48.5526 107.261 49 106.59 49H103.401C102.73 49 102.152 48.5526 101.977 47.9135L101.665 46.7358C100.663 46.5806 99.9001 45.7315 99.9001 44.6907V43.3943C99.9001 42.7004 100.461 42.1435 101.159 42.1435H108.832C109.531 42.1526 110.091 42.7095 110.091 43.4034ZM116 25.9288C116 28.8777 114.824 31.5528 112.912 33.5157C111.46 35.013 110.523 36.9212 110.211 38.9571C110.073 39.8336 109.31 40.4818 108.41 40.4818H101.582C100.69 40.4818 99.9185 39.8427 99.7899 38.9663C99.4682 36.9303 98.5217 34.9948 97.0698 33.5066C95.1952 31.5711 94.0281 28.9416 94.0006 26.0475C93.9362 19.967 98.8066 15.046 104.927 15.0003C111.038 14.9547 116 19.8665 116 25.9288ZM106.241 19.3096C106.241 18.634 105.689 18.0771 105 18.0771C100.626 18.0771 97.0606 21.6103 97.0606 25.9653C97.0606 26.6409 97.612 27.1978 98.3012 27.1978C98.9812 27.1978 99.5418 26.65 99.5418 25.9653C99.5418 22.9707 101.995 20.5422 105 20.5422C105.689 20.5422 106.241 19.9944 106.241 19.3096Z" fill="white"/>
<path d="M91.8 9.6601L94.9615 12.8216" stroke="white" stroke-width="2.45893" stroke-linecap="round" stroke-linejoin="round"/>
<path d="M114.75 12.8216L117.911 9.66012" stroke="white" stroke-width="2.45893" stroke-linecap="round" stroke-linejoin="round"/>
<path d="M104.914 4.91788V9.38888" stroke="white" stroke-width="2.45893" stroke-linecap="round" stroke-linejoin="round"/>
</mask>
<g mask="url(#mask0)">
<rect x="89" y="3" width="31" height="39" fill="#303030"/>
</g>
<rect x="100" y="42" width="10" height="3" rx="1.5" fill="#303030"/>
<path d="M14.2271 56.878H20.6701V58H13.0031V45.964H20.4661V47.086H14.2271V51.183H20.0581V52.305H14.2271V56.878ZM27.1942 54.039C26.9109 54.039 26.5539 54.056 26.1232 54.09C25.7039 54.1127 25.2959 54.1807 24.8992 54.294C24.5139 54.396 24.1796 54.5603 23.8962 54.787C23.6242 55.0137 23.4882 55.3253 23.4882 55.722C23.4882 55.9827 23.5392 56.2093 23.6412 56.402C23.7546 56.5833 23.9019 56.7363 24.0832 56.861C24.2646 56.9743 24.4629 57.0593 24.6782 57.116C24.9049 57.1613 25.1316 57.184 25.3582 57.184C25.7662 57.184 26.1176 57.116 26.4122 56.98C26.7182 56.844 26.9732 56.6627 27.1772 56.436C27.3812 56.198 27.5286 55.926 27.6192 55.62C27.7212 55.3027 27.7722 54.9683 27.7722 54.617V54.039H27.1942ZM27.7722 53.121V52.917C27.7722 51.5457 27.0922 50.86 25.7322 50.86C24.8029 50.86 23.9926 51.1717 23.3012 51.795L22.6212 50.996C23.3692 50.2253 24.4912 49.84 25.9872 49.84C26.3726 49.84 26.7409 49.8967 27.0922 50.01C27.4549 50.1233 27.7666 50.299 28.0272 50.537C28.2879 50.7637 28.4976 51.0527 28.6562 51.404C28.8149 51.7553 28.8942 52.1747 28.8942 52.662V56.215C28.8942 56.521 28.9056 56.844 28.9282 57.184C28.9622 57.5127 28.9962 57.7847 29.0302 58H27.9422C27.9082 57.8073 27.8799 57.5977 27.8572 57.371C27.8459 57.1443 27.8402 56.9233 27.8402 56.708H27.8062C27.4776 57.2407 27.0866 57.626 26.6332 57.864C26.1912 58.0907 25.6472 58.204 25.0012 58.204C24.6499 58.204 24.3099 58.153 23.9812 58.051C23.6526 57.9603 23.3579 57.8187 23.0972 57.626C22.8479 57.422 22.6439 57.1783 22.4852 56.895C22.3379 56.6003 22.2642 56.2603 22.2642 55.875C22.2642 55.229 22.4286 54.7247 22.7572 54.362C23.0972 53.988 23.5166 53.7103 24.0152 53.529C24.5252 53.3477 25.0636 53.2343 25.6302 53.189C26.2082 53.1437 26.7352 53.121 27.2112 53.121H27.7722ZM35.7037 51.931C35.5337 51.6023 35.307 51.3417 35.0237 51.149C34.7403 50.9563 34.3947 50.86 33.9867 50.86C33.794 50.86 33.5957 50.8827 33.3917 50.928C33.199 50.9733 33.0233 51.047 32.8647 51.149C32.706 51.2397 32.5757 51.3587 32.4737 51.506C32.383 51.6533 32.3377 51.8347 32.3377 52.05C32.3377 52.424 32.468 52.696 32.7287 52.866C32.9893 53.036 33.3803 53.1833 33.9017 53.308L35.0407 53.58C35.596 53.7047 36.055 53.9597 36.4177 54.345C36.7917 54.719 36.9787 55.1893 36.9787 55.756C36.9787 56.1867 36.888 56.5607 36.7067 56.878C36.5367 57.184 36.3043 57.439 36.0097 57.643C35.7263 57.8357 35.3977 57.9773 35.0237 58.068C34.6497 58.1587 34.27 58.204 33.8847 58.204C33.2727 58.204 32.7003 58.0907 32.1677 57.864C31.6463 57.626 31.1987 57.2237 30.8247 56.657L31.7937 55.994C32.0203 56.3567 32.3037 56.6457 32.6437 56.861C32.995 57.0763 33.4087 57.184 33.8847 57.184C34.1113 57.184 34.338 57.1613 34.5647 57.116C34.7913 57.0593 34.9897 56.98 35.1597 56.878C35.341 56.7647 35.4827 56.623 35.5847 56.453C35.698 56.283 35.7547 56.0847 35.7547 55.858C35.7547 55.4613 35.6073 55.178 35.3127 55.008C35.018 54.8267 34.661 54.685 34.2417 54.583L33.1537 54.328C33.0177 54.294 32.8307 54.2373 32.5927 54.158C32.366 54.0787 32.1393 53.9597 31.9127 53.801C31.6973 53.6423 31.5103 53.4383 31.3517 53.189C31.193 52.9283 31.1137 52.611 31.1137 52.237C31.1137 51.829 31.193 51.472 31.3517 51.166C31.5217 50.86 31.7427 50.6107 32.0147 50.418C32.298 50.2253 32.6153 50.0837 32.9667 49.993C33.318 49.891 33.6807 49.84 34.0547 49.84C34.61 49.84 35.1257 49.9477 35.6017 50.163C36.0777 50.3783 36.446 50.7467 36.7067 51.268L35.7037 51.931ZM41.684 56.623L44.115 50.044H45.475L41.497 60.074C41.259 60.686 40.953 61.1733 40.579 61.536C40.2163 61.8987 39.6893 62.08 38.998 62.08C38.828 62.08 38.6523 62.0743 38.471 62.063C38.301 62.0517 38.131 62.0177 37.961 61.961L38.08 60.873C38.318 60.9977 38.6013 61.06 38.93 61.06C39.3266 61.06 39.6383 60.9353 39.865 60.686C40.0916 60.4367 40.29 60.0853 40.46 59.632L41.038 58.102L37.774 50.044H39.185L41.684 56.623ZM53.2906 56.878H58.9006V58H52.0666V45.964H53.2906V56.878ZM66.4996 55.756L70.5626 45.964H72.4326V58H71.2086V47.596H71.1746L66.8226 58H66.1766L61.8246 47.596H61.7906V58H60.5666V45.964H62.4366L66.4996 55.756ZM81.3856 47.953C80.8529 47.171 80.0766 46.78 79.0566 46.78C78.7393 46.78 78.4276 46.8253 78.1216 46.916C77.8156 46.9953 77.5379 47.1257 77.2886 47.307C77.0506 47.477 76.8579 47.7037 76.7106 47.987C76.5633 48.259 76.4896 48.582 76.4896 48.956C76.4896 49.5 76.6426 49.925 76.9486 50.231C77.2546 50.5257 77.6343 50.7693 78.0876 50.962C78.5409 51.1547 79.0339 51.3303 79.5666 51.489C80.1106 51.6363 80.6093 51.8403 81.0626 52.101C81.5159 52.3503 81.8956 52.6847 82.2016 53.104C82.5076 53.5233 82.6606 54.0957 82.6606 54.821C82.6606 55.365 82.5416 55.858 82.3036 56.3C82.0769 56.7307 81.7709 57.0933 81.3856 57.388C81.0116 57.6827 80.5866 57.9093 80.1106 58.068C79.6459 58.2267 79.1756 58.306 78.6996 58.306C77.9629 58.306 77.2603 58.17 76.5916 57.898C75.9343 57.6147 75.3733 57.1557 74.9086 56.521L76.0136 55.722C76.2743 56.164 76.6369 56.521 77.1016 56.793C77.5663 57.0537 78.1159 57.184 78.7506 57.184C79.0566 57.184 79.3626 57.1387 79.6686 57.048C79.9746 56.946 80.2466 56.8043 80.4846 56.623C80.7339 56.4303 80.9379 56.198 81.0966 55.926C81.2553 55.654 81.3346 55.3423 81.3346 54.991C81.3346 54.5717 81.2439 54.226 81.0626 53.954C80.8926 53.6707 80.6603 53.4383 80.3656 53.257C80.0823 53.0643 79.7536 52.9057 79.3796 52.781C79.0169 52.6563 78.6373 52.5317 78.2406 52.407C77.8553 52.2823 77.4756 52.1407 77.1016 51.982C76.7389 51.8233 76.4103 51.625 76.1156 51.387C75.8323 51.1377 75.5999 50.8317 75.4186 50.469C75.2486 50.095 75.1636 49.6303 75.1636 49.075C75.1636 48.497 75.2713 47.9927 75.4866 47.562C75.7133 47.1313 76.0079 46.7743 76.3706 46.491C76.7446 46.2077 77.1639 45.998 77.6286 45.862C78.0933 45.726 78.5693 45.658 79.0566 45.658C79.7366 45.658 80.3543 45.7657 80.9096 45.981C81.4649 46.1963 81.9806 46.576 82.4566 47.12L81.3856 47.953ZM93.1663 51.064H91.2793V58H90.1573V51.064H88.4743V50.044H90.1573V47.868C90.1573 46.814 90.401 46.066 90.8883 45.624C91.3757 45.1707 92.0217 44.944 92.8263 44.944C92.985 44.944 93.1437 44.9553 93.3023 44.978C93.4723 45.0007 93.6367 45.029 93.7953 45.063L93.5913 46.083C93.4553 46.049 93.3137 46.0207 93.1663 45.998C93.019 45.9753 92.8717 45.964 92.7243 45.964C92.4183 45.964 92.169 46.015 91.9763 46.117C91.7837 46.219 91.6363 46.3663 91.5343 46.559C91.4323 46.7403 91.3643 46.9557 91.3303 47.205C91.2963 47.4543 91.2793 47.7207 91.2793 48.004V50.044H93.1663V51.064ZM101.308 54.022C101.308 53.58 101.234 53.1663 101.087 52.781C100.951 52.3957 100.752 52.0613 100.492 51.778C100.231 51.4947 99.9136 51.2737 99.5396 51.115C99.1769 50.945 98.7633 50.86 98.2986 50.86C97.8339 50.86 97.4146 50.945 97.0406 51.115C96.6779 51.2737 96.3663 51.4947 96.1056 51.778C95.8563 52.0613 95.6579 52.3957 95.5106 52.781C95.3746 53.1663 95.3066 53.58 95.3066 54.022C95.3066 54.464 95.3746 54.8777 95.5106 55.263C95.6579 55.6483 95.8563 55.9827 96.1056 56.266C96.3663 56.5493 96.6779 56.776 97.0406 56.946C97.4146 57.1047 97.8339 57.184 98.2986 57.184C98.7633 57.184 99.1769 57.1047 99.5396 56.946C99.9136 56.776 100.231 56.5493 100.492 56.266C100.752 55.9827 100.951 55.6483 101.087 55.263C101.234 54.8777 101.308 54.464 101.308 54.022ZM102.532 54.022C102.532 54.6227 102.424 55.178 102.209 55.688C102.005 56.198 101.716 56.64 101.342 57.014C100.968 57.388 100.52 57.6827 99.9986 57.898C99.4886 58.102 98.9219 58.204 98.2986 58.204C97.6866 58.204 97.1199 58.102 96.5986 57.898C96.0886 57.6827 95.6466 57.388 95.2726 57.014C94.8986 56.64 94.6039 56.198 94.3886 55.688C94.1846 55.178 94.0826 54.6227 94.0826 54.022C94.0826 53.4213 94.1846 52.866 94.3886 52.356C94.6039 51.846 94.8986 51.404 95.2726 51.03C95.6466 50.656 96.0886 50.367 96.5986 50.163C97.1199 49.9477 97.6866 49.84 98.2986 49.84C98.9219 49.84 99.4886 49.9477 99.9986 50.163C100.52 50.367 100.968 50.656 101.342 51.03C101.716 51.404 102.005 51.846 102.209 52.356C102.424 52.866 102.532 53.4213 102.532 54.022ZM104.687 52.526C104.687 52.1747 104.675 51.8177 104.653 51.455C104.641 51.0923 104.63 50.622 104.619 50.044H105.724V51.523H105.758C105.837 51.3077 105.95 51.1037 106.098 50.911C106.245 50.707 106.421 50.5257 106.625 50.367C106.84 50.2083 107.084 50.0837 107.356 49.993C107.639 49.891 107.956 49.84 108.308 49.84C108.625 49.84 108.903 49.874 109.141 49.942L108.92 51.047C108.772 50.9903 108.557 50.962 108.274 50.962C107.843 50.962 107.475 51.047 107.169 51.217C106.863 51.3757 106.608 51.5853 106.404 51.846C106.2 52.0953 106.047 52.3673 105.945 52.662C105.854 52.9567 105.809 53.24 105.809 53.512V58H104.687V52.526ZM121.132 53.41C121.132 52.6507 120.905 52.0387 120.452 51.574C119.998 51.098 119.364 50.86 118.548 50.86C118.185 50.86 117.834 50.9337 117.494 51.081C117.154 51.217 116.853 51.404 116.593 51.642C116.343 51.88 116.139 52.152 115.981 52.458C115.833 52.764 115.76 53.0813 115.76 53.41H121.132ZM115.726 54.328C115.76 54.7247 115.856 55.0987 116.015 55.45C116.173 55.8013 116.383 56.1073 116.644 56.368C116.904 56.6173 117.205 56.8157 117.545 56.963C117.885 57.1103 118.253 57.184 118.65 57.184C119.25 57.184 119.766 57.048 120.197 56.776C120.639 56.4927 120.973 56.1697 121.2 55.807L122.067 56.521C121.591 57.1217 121.064 57.5523 120.486 57.813C119.919 58.0737 119.307 58.204 118.65 58.204C118.06 58.204 117.511 58.102 117.001 57.898C116.502 57.6827 116.071 57.388 115.709 57.014C115.346 56.64 115.057 56.198 114.842 55.688C114.638 55.178 114.536 54.6227 114.536 54.022C114.536 53.4213 114.638 52.866 114.842 52.356C115.046 51.846 115.329 51.404 115.692 51.03C116.054 50.656 116.479 50.367 116.967 50.163C117.454 49.9477 117.981 49.84 118.548 49.84C119.148 49.84 119.687 49.9477 120.163 50.163C120.639 50.3783 121.035 50.6673 121.353 51.03C121.681 51.3813 121.931 51.8007 122.101 52.288C122.271 52.764 122.356 53.274 122.356 53.818V54.328H115.726ZM127.892 58H126.634L123.404 50.044H124.747L127.28 56.742H127.314L129.847 50.044H131.122L127.892 58ZM138.779 53.41C138.779 52.6507 138.553 52.0387 138.099 51.574C137.646 51.098 137.011 50.86 136.195 50.86C135.833 50.86 135.481 50.9337 135.141 51.081C134.801 51.217 134.501 51.404 134.24 51.642C133.991 51.88 133.787 52.152 133.628 52.458C133.481 52.764 133.407 53.0813 133.407 53.41H138.779ZM133.373 54.328C133.407 54.7247 133.504 55.0987 133.662 55.45C133.821 55.8013 134.031 56.1073 134.291 56.368C134.552 56.6173 134.852 56.8157 135.192 56.963C135.532 57.1103 135.901 57.184 136.297 57.184C136.898 57.184 137.414 57.048 137.844 56.776C138.286 56.4927 138.621 56.1697 138.847 55.807L139.714 56.521C139.238 57.1217 138.711 57.5523 138.133 57.813C137.567 58.0737 136.955 58.204 136.297 58.204C135.708 58.204 135.158 58.102 134.648 57.898C134.15 57.6827 133.719 57.388 133.356 57.014C132.994 56.64 132.705 56.198 132.489 55.688C132.285 55.178 132.183 54.6227 132.183 54.022C132.183 53.4213 132.285 52.866 132.489 52.356C132.693 51.846 132.977 51.404 133.339 51.03C133.702 50.656 134.127 50.367 134.614 50.163C135.102 49.9477 135.629 49.84 136.195 49.84C136.796 49.84 137.334 49.9477 137.81 50.163C138.286 50.3783 138.683 50.6673 139 51.03C139.329 51.3813 139.578 51.8007 139.748 52.288C139.918 52.764 140.003 53.274 140.003 53.818V54.328H133.373ZM142.156 52.526C142.156 52.1747 142.145 51.8177 142.122 51.455C142.111 51.0923 142.1 50.622 142.088 50.044H143.193V51.523H143.227C143.307 51.3077 143.42 51.1037 143.567 50.911C143.715 50.707 143.89 50.5257 144.094 50.367C144.31 50.2083 144.553 50.0837 144.825 49.993C145.109 49.891 145.426 49.84 145.777 49.84C146.095 49.84 146.372 49.874 146.61 49.942L146.389 51.047C146.242 50.9903 146.027 50.962 145.743 50.962C145.313 50.962 144.944 51.047 144.638 51.217C144.332 51.3757 144.077 51.5853 143.873 51.846C143.669 52.0953 143.516 52.3673 143.414 52.662C143.324 52.9567 143.278 53.24 143.278 53.512V58H142.156V52.526ZM150.64 56.623L153.071 50.044H154.431L150.453 60.074C150.215 60.686 149.909 61.1733 149.535 61.536C149.172 61.8987 148.645 62.08 147.954 62.08C147.784 62.08 147.608 62.0743 147.427 62.063C147.257 62.0517 147.087 62.0177 146.917 61.961L147.036 60.873C147.274 60.9977 147.557 61.06 147.886 61.06C148.283 61.06 148.594 60.9353 148.821 60.686C149.048 60.4367 149.246 60.0853 149.416 59.632L149.994 58.102L146.73 50.044H148.141L150.64 56.623ZM162.7 54.022C162.7 53.58 162.627 53.1663 162.479 52.781C162.343 52.3957 162.145 52.0613 161.884 51.778C161.624 51.4947 161.306 51.2737 160.932 51.115C160.57 50.945 160.156 50.86 159.691 50.86C159.227 50.86 158.807 50.945 158.433 51.115C158.071 51.2737 157.759 51.4947 157.498 51.778C157.249 52.0613 157.051 52.3957 156.903 52.781C156.767 53.1663 156.699 53.58 156.699 54.022C156.699 54.464 156.767 54.8777 156.903 55.263C157.051 55.6483 157.249 55.9827 157.498 56.266C157.759 56.5493 158.071 56.776 158.433 56.946C158.807 57.1047 159.227 57.184 159.691 57.184C160.156 57.184 160.57 57.1047 160.932 56.946C161.306 56.776 161.624 56.5493 161.884 56.266C162.145 55.9827 162.343 55.6483 162.479 55.263C162.627 54.8777 162.7 54.464 162.7 54.022ZM163.924 54.022C163.924 54.6227 163.817 55.178 163.601 55.688C163.397 56.198 163.108 56.64 162.734 57.014C162.36 57.388 161.913 57.6827 161.391 57.898C160.881 58.102 160.315 58.204 159.691 58.204C159.079 58.204 158.513 58.102 157.991 57.898C157.481 57.6827 157.039 57.388 156.665 57.014C156.291 56.64 155.997 56.198 155.781 55.688C155.577 55.178 155.475 54.6227 155.475 54.022C155.475 53.4213 155.577 52.866 155.781 52.356C155.997 51.846 156.291 51.404 156.665 51.03C157.039 50.656 157.481 50.367 157.991 50.163C158.513 49.9477 159.079 49.84 159.691 49.84C160.315 49.84 160.881 49.9477 161.391 50.163C161.913 50.367 162.36 50.656 162.734 51.03C163.108 51.404 163.397 51.846 163.601 52.356C163.817 52.866 163.924 53.4213 163.924 54.022ZM167.031 50.044C167.054 50.2593 167.065 50.4747 167.065 50.69C167.077 50.894 167.082 51.1037 167.082 51.319H167.116C167.241 51.1037 167.4 50.9053 167.592 50.724C167.785 50.5427 168 50.3897 168.238 50.265C168.476 50.129 168.726 50.027 168.986 49.959C169.258 49.8797 169.525 49.84 169.785 49.84C170.805 49.84 171.559 50.112 172.046 50.656C172.534 51.1887 172.777 51.9537 172.777 52.951V58H171.655V53.597C171.655 52.713 171.502 52.0387 171.196 51.574C170.89 51.098 170.324 50.86 169.496 50.86C169.44 50.86 169.281 50.8827 169.02 50.928C168.76 50.9733 168.482 51.098 168.187 51.302C167.904 51.506 167.649 51.812 167.422 52.22C167.196 52.628 167.082 53.1947 167.082 53.92V58H165.96V51.795C165.96 51.5797 165.949 51.3077 165.926 50.979C165.915 50.6503 165.898 50.3387 165.875 50.044H167.031ZM181.595 53.41C181.595 52.6507 181.368 52.0387 180.915 51.574C180.461 51.098 179.827 50.86 179.011 50.86C178.648 50.86 178.297 50.9337 177.957 51.081C177.617 51.217 177.316 51.404 177.056 51.642C176.806 51.88 176.602 52.152 176.444 52.458C176.296 52.764 176.223 53.0813 176.223 53.41H181.595ZM176.189 54.328C176.223 54.7247 176.319 55.0987 176.478 55.45C176.636 55.8013 176.846 56.1073 177.107 56.368C177.367 56.6173 177.668 56.8157 178.008 56.963C178.348 57.1103 178.716 57.184 179.113 57.184C179.713 57.184 180.229 57.048 180.66 56.776C181.102 56.4927 181.436 56.1697 181.663 55.807L182.53 56.521C182.054 57.1217 181.527 57.5523 180.949 57.813C180.382 58.0737 179.77 58.204 179.113 58.204C178.523 58.204 177.974 58.102 177.464 57.898C176.965 57.6827 176.534 57.388 176.172 57.014C175.809 56.64 175.52 56.198 175.305 55.688C175.101 55.178 174.999 54.6227 174.999 54.022C174.999 53.4213 175.101 52.866 175.305 52.356C175.509 51.846 175.792 51.404 176.155 51.03C176.517 50.656 176.942 50.367 177.43 50.163C177.917 49.9477 178.444 49.84 179.011 49.84C179.611 49.84 180.15 49.9477 180.626 50.163C181.102 50.3783 181.498 50.6673 181.816 51.03C182.144 51.3813 182.394 51.8007 182.564 52.288C182.734 52.764 182.819 53.274 182.819 53.818V54.328H176.189Z" fill="#666666"/>
</svg>
