<svg width="32" height="33" viewBox="0 0 32 33" fill="none" xmlns="http://www.w3.org/2000/svg">
<path fill-rule="evenodd" clip-rule="evenodd" d="M0 16.2832C0 25.267 7.16344 32.5498 16 32.5498C24.8366 32.5498 32 25.267 32 16.2832C32 7.29941 24.8366 0.0166016 16 0.0166016C7.16344 0.0166016 0 7.29941 0 16.2832ZM9.90485 26.0149V22.5428C7.76592 20.8879 6.4 18.3676 6.4 15.545C6.4 10.5602 10.66 6.51919 15.915 6.51919C21.1704 6.51919 25.4301 10.5602 25.4301 15.545C25.4301 20.5295 21.1704 24.5708 15.915 24.5708C14.9347 24.5708 13.9884 24.43 13.0983 24.1692L9.90485 26.0149Z" fill="#02894B"/>
<path d="M14.899 13.0747L9.76756 18.5983L14.4376 15.9934L16.8776 18.5983L21.98 13.0747L17.3618 15.6341L14.899 13.0747Z" fill="#02894B"/>
</svg>
